<svg xmlns="http://www.w3.org/2000/svg" width="131.00525" height="153.07874" viewBox="0 0 131.00525 153.07874"><title>Asset 7</title><g id="72efb860-72b9-4712-aacb-87862ba1dd5e" data-name="Layer 2"><g id="32ab8588-114a-4868-a36b-69f7295f17c1" data-name="Layer 1"><path d="M110.80457,52.9248,86.8468,29.076A8.79743,8.79743,0,0,0,80.204,26.08124a8.51668,8.51668,0,0,0-6.64282,2.668,7.91078,7.91078,0,0,0-2.61359,6.58838,8.96744,8.96744,0,0,0,2.94025,6.75171l2.83142,2.77691,4.46484-4.35589-2.99475-2.94031c-1.47009-1.5246-1.579-2.99469-.16333-4.30152,1.30676-1.41564,2.77692-1.30676,4.30151.1634l3.64808,3.75695a4.20325,4.20325,0,0,1,.10894,2.28693l-2.45025,6.3161a11.19258,11.19258,0,0,0-1.089,4.24707c0,1.25232.87121,2.72247,2.72247,4.57373L91.475,60.82a14.84957,14.84957,0,0,0,1.688,1.47015,4.97043,4.97043,0,0,0,2.178,1.47015,5.99191,5.99191,0,0,0,3.4303.10889,8.21687,8.21687,0,0,0,3.70251-2.06909,6.9971,6.9971,0,0,0,2.178-5.98944l1.63349,1.68793ZM97.51886,56.51849a2.28132,2.28132,0,0,1-2.01459-.76233L90.985,51.18243c-.98011-.9801-1.5246-1.579-1.579-1.63348a2.871,2.871,0,0,1-.10888-2.668l1.30676-3.10364a5.13686,5.13686,0,0,1,.16333-1.089V41.926l9.52869,9.63757c.21777.16333.27221.49.27221,1.089a4.61837,4.61837,0,0,1-.70782,2.55908A3.13194,3.13194,0,0,1,97.51886,56.51849Z"/><polygon points="59.023 43.777 89.569 74.269 94.089 69.641 63.597 39.204 59.023 43.777"/><path d="M43.55951,43.94067l9.25641,9.25641a6.87728,6.87728,0,0,0-5.935,2.01459,7.54126,7.54126,0,0,0-2.12353,3.757,6.49357,6.49357,0,0,0,.16339,3.4303A10.92294,10.92294,0,0,0,47.861,66.3194L66.91833,85.37665c.49006.43561,1.03455.9801,1.63349,1.41571a6.17884,6.17884,0,0,0,2.28686,1.47009,6.45958,6.45958,0,0,0,3.4303.21784,8.30463,8.30463,0,0,0,3.757-2.23243,6.70267,6.70267,0,0,0,2.06909-5.82611l1.579,1.63349L86.30231,77.536,48.18774,39.36688ZM56.9541,57.22632,76.01135,76.28363a4.90978,4.90978,0,0,1-.59894,3.4303,3.607,3.607,0,0,1-2.45019,1.41565,2.64312,2.64312,0,0,1-2.01465-.87116L52.9248,62.23566a2.17486,2.17486,0,0,1-.70782-2.12354,2.2766,2.2766,0,0,1,1.30676-2.178A4.642,4.642,0,0,1,56.9541,57.22632Z"/><path d="M61.47339,85.81226,57.00854,90.386l1.85126,1.74243a3.2356,3.2356,0,0,1,.76227,2.28686,3.05234,3.05234,0,0,1-.9256,2.178,3.32231,3.32231,0,0,1-2.178.98,2.996,2.996,0,0,1-2.28686-.87115L49.49451,91.965l9.09308-9.093L45.84637,70.07635a9.71173,9.71173,0,0,0-6.915-2.77691,9.07627,9.07627,0,0,0-6.75177,2.77691,9.20022,9.20022,0,0,0-2.99469,6.91511,9.00566,9.00566,0,0,0,2.8858,6.80615l17.42383,17.42383a9.23648,9.23648,0,0,0,6.80615,2.72247,9.76,9.76,0,0,0,9.74646-9.692,9.94494,9.94494,0,0,0-2.8858-6.75171ZM36.64447,79.115a2.887,2.887,0,0,1-.92566-2.28686,2.60483,2.60483,0,0,1,.92566-2.178,3.06286,3.06286,0,0,1,1.25232-.81678A5.15463,5.15463,0,0,1,38.93134,73.67a2.66636,2.66636,0,0,1,2.23242.87116l8.603,8.49414L45.193,87.55463Z"/><path d="M24.23,83.03534a7.26913,7.26913,0,0,0-3.4303,0,7.85513,7.85513,0,0,0-3.757,2.06909,6.32456,6.32456,0,0,0-1.90576,3.53919,7.10545,7.10545,0,0,0-.21777,3.4848A4.864,4.864,0,0,0,11.87,91.8017a7.1328,7.1328,0,0,0-3.64814,2.06909,6.58808,6.58808,0,0,0-2.01465,5.98944L4.51929,98.22675,0,102.85492l30.49164,30.4917,4.57379-4.62824L10.23651,103.94391a4.29765,4.29765,0,0,1,.70783-3.4303,3.01381,3.01381,0,0,1,2.3413-1.47015,2.7262,2.7262,0,0,1,2.01465.87121l24.23,24.33887,4.62818-4.57373-24.93781-24.829a1.03508,1.03508,0,0,1-.27228-.70782,5.02409,5.02409,0,0,1,.70789-2.4502A2.67759,2.67759,0,0,1,22.052,90.2771a2.5046,2.5046,0,0,1,2.01465.70782L48.35107,115.3783,52.9248,110.859,28.04144,86.03A11.92336,11.92336,0,0,0,24.23,83.03534Z"/><path d="M44.75739,16.22592a1.73929,1.73929,0,0,1-.16334.7623L39.5847,24.33889l8.9297-.87119a3.325,3.325,0,0,1,.70785.16334,1.27709,1.27709,0,0,1,.59894.599l3.86591,7.78626,3.70256-8.05851a1.05459,1.05459,0,0,1,.43559-.59894,3.14081,3.14081,0,0,1,.76229-.16335l8.82081.65339L62.2901,16.66152a.97608.97608,0,0,1-.27224-.70784,1.23044,1.23044,0,0,1,.27224-.81674l4.79155-7.35067-8.76635.87119a1.92159,1.92159,0,0,1-.76229-.16335.783.783,0,0,1-.5445-.5445L53.08815,0,49.49449,8.05851a1.1607,1.1607,0,0,1-.54449.599,1.77243,1.77243,0,0,1-.76229.21779L39.3669,8.33076l5.11825,7.07842a1.23048,1.23048,0,0,1,.27224.81674" style="fill:#f5851f"/><path d="M118.75415,61.96344a3.10808,3.10808,0,0,1,.32672-1.74243,1.6537,1.6537,0,0,1,1.25232-.70783l-2.5047-2.55914a3.43287,3.43287,0,0,0-1.03448,2.99475l-.81678-.81677L113.69037,61.419l15.08246,15.028,2.23242-2.23242Z"/><path d="M115.65051,65.99268a4.446,4.446,0,0,0-3.37585-1.41571,4.004,4.004,0,0,0-3.37586,1.30682,4.68209,4.68209,0,0,0-1.41565,3.48474,4.33113,4.33113,0,0,0,1.41565,3.32141l8.54859,8.603a4.61881,4.61881,0,0,0,3.32141,1.41565,5.23106,5.23106,0,0,0,3.4303-1.52454,4.33118,4.33118,0,0,0,1.41571-3.32141,4.41194,4.41194,0,0,0-1.41571-3.32147Zm6.37061,13.01342c-.38117.32666-.70783.5445-1.14343.43555-.43561.109-.76227-.10889-1.14344-.43555l-8.65747-8.65747a1.65375,1.65375,0,0,1-.43561-1.14343,1.39814,1.39814,0,0,1,.5445-1.03455,1.8882,1.8882,0,0,1,1.03454-.54449,2.10206,2.10206,0,0,1,1.03455.54449l8.65747,8.65748a1.39788,1.39788,0,0,1,.5445,1.03454A1.65352,1.65352,0,0,1,122.02112,79.0061Z"/><path d="M98.06335,69.36853l4.62824,4.62817a3.81269,3.81269,0,0,0-2.99475,1.089,2.88174,2.88174,0,0,0-.9256,1.79688,2.54713,2.54713,0,0,0,0,1.79681,5.79444,5.79444,0,0,0,1.47009,1.79682l9.4198,9.47424.70783.70782a2.4359,2.4359,0,0,0,1.14343.76227,4.62483,4.62483,0,0,0,1.74237,0,2.98212,2.98212,0,0,0,1.74237-1.03454,3.45776,3.45776,0,0,0,1.14343-2.88581l.76233.76227,2.178-2.17792-18.83954-18.894Zm6.58838,6.64282,9.47425,9.47418a2.787,2.787,0,0,1-.32672,1.74244,2.13064,2.13064,0,0,1-1.14344.59893,1.02747,1.02747,0,0,1-1.03454-.32672l-8.92969-8.92968a1.05591,1.05591,0,0,1-.38117-1.03455,1.233,1.233,0,0,1,.65339-1.14343A2.60071,2.60071,0,0,1,104.65173,76.01135Z"/><path d="M95.77649,80.9118a4.4119,4.4119,0,0,0-3.32141,1.41571,3.91552,3.91552,0,0,0-1.30676,3.267,4.703,4.703,0,0,0,1.47015,3.37586L94.03412,90.386,96.321,88.09912,94.79645,86.629a1.24993,1.24993,0,0,1-.05451-2.01459,1.31628,1.31628,0,0,1,2.01465.05444l1.79682,1.85126a1.47209,1.47209,0,0,1,.10894,1.14343L97.41,90.82159a7.96667,7.96667,0,0,0-.49,2.0691c0,.65338.38117,1.3612,1.41571,2.3413l3.0492,2.99476a4.06658,4.06658,0,0,0,.76226.65338,2.43608,2.43608,0,0,0,1.14344.76227,2.6672,2.6672,0,0,0,1.63348.10888,4.013,4.013,0,0,0,1.85126-1.14343,3.53776,3.53776,0,0,0,1.089-2.83136l.76233.81677,2.28686-2.28692L99.0979,82.49084A5.29912,5.29912,0,0,0,95.77649,80.9118Zm4.46484,10.45429.70789-1.579v-.87116l4.68262,4.68262a.72593.72593,0,0,1,.21783.5445,2.83954,2.83954,0,0,1-.27228,1.36126,2.7889,2.7889,0,0,1-1.25232.65338,1.342,1.342,0,0,1-.92566-.4356l-2.28686-2.28687c-.43561-.38116-.70783-.65338-.81671-.76233A1.244,1.244,0,0,1,100.24133,91.36609Z"/><path d="M98.55341,98.22675a5.069,5.069,0,0,0-1.79682-1.47016,5.57217,5.57217,0,0,0-2.668-.70782,7.35971,7.35971,0,0,0-2.45019.21777c-.87122.16333-1.47016.21777-1.90577.32672a12.30661,12.30661,0,0,1-1.63348-.27228,10.0761,10.0761,0,0,1-1.3612-.9801l-.32673-.32666a1.65385,1.65385,0,0,1-.4356-1.14343,2.10286,2.10286,0,0,1,.54449-1.03455,1.88831,1.88831,0,0,1,1.03455-.54449,1.69758,1.69758,0,0,1,1.14343.49005l.92566.9256,2.23242-2.178-.87115-.87116a4.41193,4.41193,0,0,0-3.32142-1.41571,4.11063,4.11063,0,0,0-3.43035,1.30683,5.15568,5.15568,0,0,0,0,6.86059l.49.5445a10.10311,10.10311,0,0,1,.9801.76233,2.32988,2.32988,0,0,0,1.03455.65338,5.37617,5.37617,0,0,0,2.28686.54449,19.29874,19.29874,0,0,0,2.55914-.27227l1.9057-.32667a2.9011,2.9011,0,0,1,1.74237.32667,12.211,12.211,0,0,1,1.68793,1.30682l.38117.43555a1.33832,1.33832,0,0,1,.49,1.19793,1.67747,1.67747,0,0,1-.49,1.089,1.43162,1.43162,0,0,1-1.089.43555,1.12994,1.12994,0,0,1-1.14344-.43555l-1.14343-1.089-2.28686,2.23242,1.14343,1.14344a4.17278,4.17278,0,0,0,3.4303,1.30676,4.4119,4.4119,0,0,0,3.32141-1.41571,4.29739,4.29739,0,0,0,1.41571-3.26691,4.44622,4.44622,0,0,0-1.41571-3.37591Z"/><path d="M90.71271,106.12189a4.94067,4.94067,0,0,0-1.85126-1.47016,5.36356,5.36356,0,0,0-2.61359-.70782,7.25528,7.25528,0,0,0-2.45025.16333c-.87116.16339-1.4701.27228-1.96015.38116-.76226-.10888-1.30676-.21777-1.63348-.27221a13.25572,13.25572,0,0,1-1.30676-.98011l-.38117-.32672a1.952,1.952,0,0,1-.43561-1.14343,2.29163,2.29163,0,0,1,.5445-1.089,2.04389,2.04389,0,0,1,1.03454-.49,1.9524,1.9524,0,0,1,1.14344.43561l.9801.9801,2.178-2.23242-.87122-.87122a4.56405,4.56405,0,0,0-3.32141-1.3612,4.17243,4.17243,0,0,0-3.4303,1.30676,4.35069,4.35069,0,0,0-1.30676,3.37585,4.5443,4.5443,0,0,0,1.30676,3.4303l.5445.5445c.10889.05444.32666.32672.9801.76233a2.87977,2.87977,0,0,0,1.03455.70782,6.08209,6.08209,0,0,0,2.28686.54449c1.14343-.10888,1.9057-.21777,2.50464-.27221l1.96021-.38117a3.06621,3.06621,0,0,1,1.74237.38117,8.55754,8.55754,0,0,1,1.63348,1.30676l.43561.43561a1.0963,1.0963,0,0,1,.43561,1.14343,1.49568,1.49568,0,0,1-1.579,1.579,1.39615,1.39615,0,0,1-1.14344-.43561l-1.089-1.14343-2.28692,2.28687,1.14349,1.089a4.21373,4.21373,0,0,0,3.37586,1.3612,4.33113,4.33113,0,0,0,3.32141-1.41565A4.41185,4.41185,0,0,0,93.054,110.4234a4.331,4.331,0,0,0-1.41565-3.32141Z"/><path d="M71.70984,105.0329a4.35936,4.35936,0,0,0-3.32141,1.3612,3.87365,3.87365,0,0,0-1.30676,3.21253,5.44421,5.44421,0,0,0,1.47015,3.43036l1.41565,1.41565,2.28686-2.28687-1.52453-1.47015a1.31622,1.31622,0,0,1-.05445-2.01459,1.2499,1.2499,0,0,1,2.01459.05444l1.85132,1.85126a1.6799,1.6799,0,0,1,.05444,1.14343l-1.19787,3.15808a6.055,6.055,0,0,0-.5445,2.0691c0,.65338.43555,1.30676,1.41565,2.28686l3.0492,3.04913c.27221.27228.54449.43561.76226.65345a2.9542,2.9542,0,0,0,1.14344.76227,4.05281,4.05281,0,0,0,1.68792.10888,5.35574,5.35574,0,0,0,1.85132-1.14343,3.68076,3.68076,0,0,0,1.03449-2.83136l.76233.81671L86.8468,118.373,75.03131,106.5575A4.73621,4.73621,0,0,0,71.70984,105.0329Zm4.4649,10.3454.70783-1.579V112.928l4.73712,4.73712a1.06964,1.06964,0,0,1,.16333.5445,2.59782,2.59782,0,0,1-.27228,1.30676,2.32955,2.32955,0,0,1-1.19787.70788,1.3637,1.3637,0,0,1-.98011-.4356l-2.28686-2.28687a6.63935,6.63935,0,0,1-.76227-.81677A1.34029,1.34029,0,0,1,76.17474,115.3783Z"/><path d="M75.848,123.81793l-9.47418-9.47418a5.5252,5.5252,0,0,0-1.90576-1.41571,3.15749,3.15749,0,0,0-1.74237,0,3.26308,3.26308,0,0,0-1.85126.9801,3.59312,3.59312,0,0,0-1.03455,2.99475l-4.68267-4.62823-2.178,2.178,18.894,18.894,2.178-2.178-.76233-.81677a3.39649,3.39649,0,0,0,2.88586-1.14343,2.982,2.982,0,0,0,1.03449-1.74238,4.6223,4.6223,0,0,0,0-1.74237A11.02227,11.02227,0,0,0,75.848,123.81793Zm-2.83136,4.19263a2.40177,2.40177,0,0,1-1.74237.32666l-9.41974-9.41974a2.40186,2.40186,0,0,1,.32666-1.74237,1.419,1.419,0,0,1,1.19788-.70782,1.36334,1.36334,0,0,1,.9801.4356l8.92969,8.92969a1.24639,1.24639,0,0,1,.43561.92566A2.65914,2.65914,0,0,1,73.01666,128.01056Z"/><path d="M56.13733,121.25885a4.0831,4.0831,0,0,0-1.63348-.10895,3.41393,3.41393,0,0,0-1.96015,1.089,2.79108,2.79108,0,0,0-.92566,1.63349,4.62519,4.62519,0,0,0,0,1.74237,3.52186,3.52186,0,0,0-1.68793-.05445,2.98217,2.98217,0,0,0-1.74237,1.03455,3.53522,3.53522,0,0,0-1.03454,2.99475l-.81677-.81677-2.178,2.178,15.02807,15.08252,2.23243-2.178L49.16779,131.60419a2.62047,2.62047,0,0,1,.32672-1.79682,1.52574,1.52574,0,0,1,1.25232-.65338,1.342,1.342,0,0,1,.92566.43561l11.97888,11.97888,2.28686-2.28692-12.2511-12.2511a1.7895,1.7895,0,0,1-.16339-.32672,4.52888,4.52888,0,0,1,.32672-1.25232,1.76328,1.76328,0,0,1,1.25232-.70783,1.46367,1.46367,0,0,1,.98011.43561l11.97888,11.97888,2.23242-2.23248-12.2511-12.2511A4.87308,4.87308,0,0,0,56.13733,121.25885Z"/><path d="M42.525,134.21777a4.44619,4.44619,0,0,0-3.37585,1.41571,3.909,3.909,0,0,0-1.30676,3.21253,4.98252,4.98252,0,0,0,1.52459,3.4303l1.36121,1.3612,2.28686-2.23242-1.47009-1.5246a1.284,1.284,0,0,1-.109-2.01458,1.36,1.36,0,0,1,2.01465.10888l1.85126,1.85126a2.22625,2.22625,0,0,1,.109,1.14343l-1.25238,3.10364a8.49539,8.49539,0,0,0-.5445,2.12354c0,.59893.43561,1.30676,1.41571,2.28686l3.04914,3.04919a3.90371,3.90371,0,0,0,.81677.59894,2.81126,2.81126,0,0,0,1.14343.81671,3.17389,3.17389,0,0,0,1.63349.05445,3.83484,3.83484,0,0,0,1.85125-1.14343,3.382,3.382,0,0,0,1.03455-2.77692l.81677.76233,2.23242-2.23242L45.84637,135.79681A5.299,5.299,0,0,0,42.525,134.21777Zm4.4104,10.39984.70789-1.579v-.87115l4.73706,4.73706c.10889.05444.16339.27228.16339.49,0,.65338-.0545,1.089-.27228,1.30682a1.76857,1.76857,0,0,1-1.19787.70783,1.46379,1.46379,0,0,1-.98011-.43561L47.861,146.74115a10.32492,10.32492,0,0,1-.81671-.81677A1.34045,1.34045,0,0,1,46.93536,144.61761Z"/></g></g></svg>