<svg id="Layer_1" data-name="Layer 1" xmlns="http://www.w3.org/2000/svg" xmlns:xlink="http://www.w3.org/1999/xlink" width="283.13858mm" height="270.91671mm" viewBox="0 0 802.59755 767.95288"><defs><style>.cls-1{fill:url(#linear-gradient);}.cls-2{fill:url(#linear-gradient-2);}.cls-3{fill:url(#linear-gradient-3);}.cls-4{fill:url(#linear-gradient-4);}.cls-5{fill:url(#linear-gradient-5);}.cls-6{fill:url(#linear-gradient-6);}.cls-7{fill:url(#linear-gradient-7);}.cls-8{fill:url(#linear-gradient-8);}.cls-9{fill:url(#linear-gradient-9);}.cls-10{fill:url(#linear-gradient-10);}.cls-11{fill:url(#linear-gradient-11);}.cls-12{fill:url(#linear-gradient-12);}.cls-13{fill:url(#linear-gradient-13);}.cls-14{fill:url(#linear-gradient-14);}.cls-15{fill:#212120;}.cls-16{fill:#f38229;}</style><linearGradient id="linear-gradient" x1="-6443.32285" y1="-8250.42194" x2="2283.43573" y2="476.33665" gradientTransform="matrix(1, 0, 0, -1, 0, -942.36546)" gradientUnits="userSpaceOnUse"><stop offset="0" stop-color="#eb5725"/><stop offset="1" stop-color="#f27723"/></linearGradient><linearGradient id="linear-gradient-2" x1="-2546.30345" y1="-952.60846" x2="-2542.78609" y2="-949.09109" gradientTransform="matrix(-70.90378, 17.3682, -16.89236, -68.9612, -196112.96616, -21236.97209)" gradientUnits="userSpaceOnUse"><stop offset="0" stop-color="#f4ab4c"/><stop offset="1" stop-color="#faa93c"/></linearGradient><linearGradient id="linear-gradient-3" x1="-65032.59345" y1="-66563.71421" x2="67005.08622" y2="65473.96546" gradientTransform="matrix(1, 0, 0, -1, 0, -942.36546)" gradientUnits="userSpaceOnUse"><stop offset="0" stop-color="#f9a83e"/><stop offset="1" stop-color="#f79837"/></linearGradient><linearGradient id="linear-gradient-4" x1="-2672.27739" y1="-978.77074" x2="-2668.2732" y2="-974.76655" gradientTransform="matrix(-17.48312, 4.28257, -7.37554, -30.10982, -53469.75932, -17904.81424)" gradientUnits="userSpaceOnUse"><stop offset="0" stop-color="#f5b445"/><stop offset="1" stop-color="#f7b749"/></linearGradient><linearGradient id="linear-gradient-5" x1="-65040.47692" y1="-66555.83074" x2="-9907.41337" y2="-11422.76719" xlink:href="#linear-gradient-3"/><linearGradient id="linear-gradient-6" x1="-2544.77434" y1="-971.76922" x2="-2540.73891" y2="-967.73401" gradientTransform="matrix(-72.84634, 17.84404, -9.99266, -40.79395, -194547.18043, 6201.05033)" gradientUnits="userSpaceOnUse"><stop offset="0" stop-color="#f38229"/><stop offset="1" stop-color="#f79535"/></linearGradient><linearGradient id="linear-gradient-7" x1="-2754.11317" y1="-1141.67043" x2="364.57546" y2="-1141.67043" gradientTransform="matrix(1, 0, 0, -1, 0, -942.36546)" xlink:href="#linear-gradient-2"/><linearGradient id="linear-gradient-8" x1="-2544.36397" y1="-972.17749" x2="-2540.33134" y2="-968.14474" xlink:href="#linear-gradient-6"/><linearGradient id="linear-gradient-9" x1="-14479.91467" y1="-16054.35251" x2="15545.86583" y2="13971.42799" gradientTransform="matrix(1, 0, 0, -1, 0, -942.36546)" gradientUnits="userSpaceOnUse"><stop offset="0" stop-color="#f58a26"/><stop offset="1" stop-color="#f6922b"/></linearGradient><linearGradient id="linear-gradient-10" x1="377.95963" y1="-1051.89355" x2="624.02585" y2="-805.82729" gradientTransform="matrix(1, 0, 0, -1, 0, -942.36546)" xlink:href="#linear-gradient-4"/><linearGradient id="linear-gradient-11" x1="-65146.13985" y1="-66705.60046" x2="67148.96132" y2="65589.50071" xlink:href="#linear-gradient-3"/><linearGradient id="linear-gradient-12" x1="-6814.9127" y1="-8450.60616" x2="7743.9262" y2="6108.23274" gradientTransform="matrix(1, 0, 0, -1, 0, -942.36546)" gradientUnits="userSpaceOnUse"><stop offset="0" stop-color="#f58b33"/><stop offset="1" stop-color="#f7973a"/></linearGradient><linearGradient id="linear-gradient-13" x1="-21219.8324" y1="-23055.52679" x2="2758.40772" y2="922.71333" gradientTransform="matrix(1, 0, 0, -1, 0, -942.36546)" gradientUnits="userSpaceOnUse"><stop offset="0" stop-color="#eb5825"/><stop offset="1" stop-color="#f38023"/></linearGradient><linearGradient id="linear-gradient-14" x1="-3323.55063" y1="-5048.05131" x2="7015.65805" y2="5291.15737" gradientTransform="matrix(1, 0, 0, -1, 0, -942.36546)" xlink:href="#linear-gradient-6"/></defs><title>Artboard 1_1</title><path class="cls-1" d="M450.5505,341.43c-2.61136-.03871-5.23787.9742-7.33469,1.4691-2.64219,2.06447-3.70966,3.6264-4.26258,5.72181l-36.651,77.291-7.73511-16.28119-20.29815,30.42066-4.13375,6.19529-8.64491,12.956L357.568,465.081l1.22416,2.13866,13.51932,23.62043,29.27918,51.15557,26.1403-45.67132L479.57937,405.737h14.48926l-28.35421-62.95008Z"/><path class="cls-2" d="M352.81824,201.66983a16.91536,16.91536,0,0,0,7.34252-1.99487,11.17985,11.17985,0,0,0,5.30707-5.70636l35.60679-77.30654,17.44575,36.97684,38.24311-37.69543L373.91181,48.93774,364.57463,65.2516,301.15582,197.69053Z"/><path class="cls-3" d="M318.8783,272.16427a11.93679,11.93679,0,0,0-2.496-7.92553l-4.09732-5.88528-76.09434,75.00486,54.93427-16.52163,26.0792-37.33459A16.88815,16.88815,0,0,0,318.8783,272.16427Z"/><polygon class="cls-4" points="463.874 109.396 463.705 109.102 456.763 115.943 463.874 109.396"/><polygon class="cls-5" points="463.874 109.396 463.705 109.102 456.763 115.943 463.874 109.396"/><path class="cls-6" d="M387.35706,394.45521l-21.03735-44.28043c-1.52824-2.65219-3.06432-4.77856-5.66029-5.86879-2.60353-.56446-4.15525-1.63927-6.76637-1.67792L268.1186,349.7723l23.00632-32.93561-54.93427,16.52163L216.06556,355.3302,313.04421,405.737h10.55791l4.47084,7.81155,41.51958,21.58064Z"/><polygon class="cls-7" points="268.288 195.159 301.156 197.691 364.575 65.252 323.602 136.837 171.488 136.837 246.946 271.287 219.151 320.812 212.243 333.12 236.191 333.358 312.285 258.353 288.48 224.161 268.288 195.159"/><polygon class="cls-8" points="252.844 405.737 313.044 405.737 216.066 355.33 252.844 405.737"/><polygon class="cls-9" points="216.066 355.33 236.191 333.358 212.243 333.12 203.457 348.776 197.324 359.704 174.009 401.246 171.488 405.737 252.844 405.737 313.044 405.737 216.066 355.33"/><polygon class="cls-10" points="458.127 99.356 446.382 78.836 413.902 22.088 401.591 0.578 375.332 46.456 373.912 48.938 456.763 115.943 463.705 109.102 458.127 99.356"/><path class="cls-11" d="M463.87355,109.39622l-7.11007,6.54725L418.52037,153.6389,437.556,193.98435c1.00612,2.64444,2.54217,4.77079,5.14572,5.33526a18.33218,18.33218,0,0,0,7.28875,1.68566l12.06195-1.0267,6.45962-82.478Z"/><polygon class="cls-12" points="485.309 136.837 479.579 136.837 468.512 117.501 462.052 199.979 491.838 197.443 534.198 193.838 497.383 248.91 494.442 253.308 492.45 256.288 491.462 257.766 497.998 254.619 497.998 254.619 590.616 210.027 631.693 136.837 485.309 136.837"/><path class="cls-13" d="M556.23517,271.287l2.44052-4.34856,31.94042-56.91118-92.61857,44.59186v.00006l-6.53537,3.14654-4.26063,6.37321a11.93408,11.93408,0,0,0-2.72648,7.84815,10.67761,10.67761,0,0,0,.22488,2.56143,10.947,10.947,0,0,0,2.28648,4.31257l48.07893,70.13132L497.646,345.6441l-31.93161-2.85722L494.06863,405.737H631.693Z"/><polygon class="cls-14" points="387.357 394.455 369.593 435.129 328.073 413.549 343.709 440.867 356.969 464.033 357.568 465.081 361.49 459.203 370.135 446.247 374.269 440.051 394.567 409.631 387.357 394.455"/><path class="cls-15" d="M225.17413,673.62153a15.32422,15.32422,0,0,0-9.96485-3.60352,12.15748,12.15748,0,0,0-8.6914,3.3916,12.45253,12.45253,0,0,0-3.498,8.9043,12.24309,12.24309,0,0,0,3.17969,8.48047,12.56435,12.56435,0,0,0,9.22266,3.81543,14.89447,14.89447,0,0,0,9.75195-3.71v13.78027a23.61411,23.61411,0,0,1-12.085,2.86231c-7.9502,0-13.99219-2.86231-18.33789-7.10157a24.64639,24.64639,0,0,1-7.41993-18.0205,25.40287,25.40287,0,0,1,7.84375-18.65723c5.29981-4.98144,11.55469-6.67773,18.02051-6.67773a26.94648,26.94648,0,0,1,11.97852,2.65039Z"/><path class="cls-15" d="M281.99053,699.91059c-4.24023,4.24024-11.44921,7.63184-20.67089,7.63184-9.22266,0-16.43067-3.3916-20.6709-7.63184a25.35185,25.35185,0,0,1,0-35.19336c4.24023-4.24023,11.44824-7.63183,20.6709-7.63183,9.22168,0,16.43066,3.3916,20.67089,7.63183a25.35182,25.35182,0,0,1,0,35.19336Zm-29.25683-26.501a13.082,13.082,0,0,0,0,17.8086,11.75236,11.75236,0,0,0,8.6914,3.3916,11.5879,11.5879,0,0,0,8.48047-3.3916,13.082,13.082,0,0,0,0-17.8086,12.56357,12.56357,0,0,0-17.17187,0Z"/><path class="cls-15" d="M299.16143,658.67524H314.4251v5.5127c3.92286-5.93653,9.64649-6.67872,13.251-6.67872a17.62175,17.62175,0,0,1,8.9043,2.12012,13.9904,13.9904,0,0,1,5.72363,6.57227,18.1677,18.1677,0,0,1,16.11231-8.69239c5.72461,0,10.38867,1.69629,13.251,4.45215,4.55762,4.34571,4.876,10.70606,4.876,14.09864v29.89257H361.27862v-23.957c0-2.4375,0-6.67773-2.01367-9.22168a7.00771,7.00771,0,0,0-5.5127-2.54394,7.33541,7.33541,0,0,0-5.93554,2.86133c-2.01465,2.54492-2.332,6.25488-2.332,9.3291v23.53222H330.22V681.35981c0-3.17969-.10645-6.88965-2.43848-9.22168a6.85117,6.85117,0,0,0-5.08789-1.9082,7.43749,7.43749,0,0,0-5.29981,1.9082c-2.8623,2.75586-2.96875,8.05566-2.96875,9.64551v24.16894H299.16143Z"/><path class="cls-15" d="M389.04718,658.67524h15.26367v5.5127c3.92285-5.93653,9.64648-6.67872,13.251-6.67872a17.62171,17.62171,0,0,1,8.9043,2.12012,13.9904,13.9904,0,0,1,5.72363,6.57227,18.16773,18.16773,0,0,1,16.11231-8.69239c5.72461,0,10.38867,1.69629,13.251,4.45215,4.55762,4.34571,4.876,10.70606,4.876,14.09864v29.89257H451.16436v-23.957c0-2.4375,0-6.67773-2.01367-9.22168a7.0077,7.0077,0,0,0-5.51269-2.54394,7.33541,7.33541,0,0,0-5.93555,2.86133c-2.01465,2.54492-2.332,6.25488-2.332,9.3291v23.53222H420.10577V681.35981c0-3.17969-.10645-6.88965-2.43848-9.22168a6.85115,6.85115,0,0,0-5.08789-1.9082,7.43747,7.43747,0,0,0-5.2998,1.9082c-2.86231,2.75586-2.96875,8.05566-2.96875,9.64551v24.16894H389.04718Z"/><path class="cls-15" d="M527.37725,684.9643h-35.2998a12.91652,12.91652,0,0,0,2.8623,8.05567,10.24423,10.24423,0,0,0,7.84473,2.96875,12.53594,12.53594,0,0,0,6.14746-1.37891,9.24069,9.24069,0,0,0,3.28613-3.92187l14.417,1.48437a21.14109,21.14109,0,0,1-9.11622,11.87207c-4.55859,2.75586-9.64648,3.498-14.94628,3.498-7.10254,0-13.35645-1.27149-18.86914-6.78418a25.39488,25.39488,0,0,1-7.10157-18.23242,26.91615,26.91615,0,0,1,7.208-18.65625c5.72363-5.72461,12.82617-6.78418,18.126-6.78418,5.30078,0,12.93261.9541,18.76269,7.10254,5.61817,5.93554,6.67871,13.35546,6.67871,19.18652Zm-14.09863-9.11621a12.02914,12.02914,0,0,0-3.07422-5.51269,11.20727,11.20727,0,0,0-14.94629.42382,10.62118,10.62118,0,0,0-2.65039,5.08887Z"/><path class="cls-15" d="M537.44561,658.67524h15.26367v7.41992a16.96632,16.96632,0,0,1,5.93653-6.57226,14.62873,14.62873,0,0,1,8.16211-2.01368,15.31956,15.31956,0,0,1,4.98242.74219l-.84863,14.31055a14.3986,14.3986,0,0,0-6.88965-1.69629,9.96732,9.96732,0,0,0-7.63184,3.17969c-3.39258,3.60449-3.71094,8.69238-3.71094,12.7207v19.18652H537.44561Z"/><path class="cls-15" d="M614.18975,673.62153a15.3242,15.3242,0,0,0-9.96484-3.60352,12.15751,12.15751,0,0,0-8.69141,3.3916,12.45252,12.45252,0,0,0-3.498,8.9043,12.24308,12.24308,0,0,0,3.17968,8.48047,12.56437,12.56437,0,0,0,9.22266,3.81543,14.89445,14.89445,0,0,0,9.75195-3.71v13.78027a23.61408,23.61408,0,0,1-12.085,2.86231c-7.95019,0-13.99219-2.86231-18.33789-7.10157a24.64642,24.64642,0,0,1-7.41992-18.0205,25.40283,25.40283,0,0,1,7.84375-18.65723c5.2998-4.98144,11.55469-6.67773,18.02051-6.67773a26.94644,26.94644,0,0,1,11.97851,2.65039Z"/><path class="cls-15" d="M673.33819,684.9643h-35.2998a12.91652,12.91652,0,0,0,2.8623,8.05567,10.24423,10.24423,0,0,0,7.84473,2.96875,12.536,12.536,0,0,0,6.14746-1.37891,9.24069,9.24069,0,0,0,3.28613-3.92187l14.417,1.48437a21.141,21.141,0,0,1-9.11621,11.87207c-4.55859,2.75586-9.64648,3.498-14.94629,3.498-7.10254,0-13.35644-1.27149-18.86914-6.78418a25.39487,25.39487,0,0,1-7.10156-18.23242,26.91615,26.91615,0,0,1,7.208-18.65625c5.72363-5.72461,12.82617-6.78418,18.126-6.78418,5.30079,0,12.93262.9541,18.7627,7.10254,5.61816,5.93554,6.67871,13.35546,6.67871,19.18652Zm-14.09863-9.11621a12.02924,12.02924,0,0,0-3.07422-5.51269,11.20727,11.20727,0,0,0-14.94629.42382,10.6211,10.6211,0,0,0-2.65039,5.08887Z"/><path class="cls-16" d="M34.69561,670.75922a17.35814,17.35814,0,0,0-8.374-2.64941,6.482,6.482,0,0,0-4.34668,1.37793,3.26955,3.26955,0,0,0-.9541,2.12012,2.4765,2.4765,0,0,0,1.48437,2.12011,27.4239,27.4239,0,0,0,4.5586,1.58985l4.02734,1.27246a20.09387,20.09387,0,0,1,7.84473,4.13379,11.27458,11.27458,0,0,1,3.71,9.00976,17.16634,17.16634,0,0,1-4.876,12.40235c-4.66406,4.66406-10.38867,5.40625-15.37109,5.40625-6.35938,0-13.25-1.37793-19.39844-6.78418L9.4671,690.476a26.23132,26.23132,0,0,0,5.19433,3.49805,14.26166,14.26166,0,0,0,6.35938,1.48437c.9541,0,3.39258,0,4.77051-1.06054a4.0226,4.0226,0,0,0,1.58984-3.07325,3.12247,3.12247,0,0,0-1.69629-2.75683,20.105,20.105,0,0,0-4.66406-1.69531l-3.81543-1.166a18.88725,18.88725,0,0,1-7.63281-4.34668A11.66344,11.66344,0,0,1,6.181,672.77387a14.65,14.65,0,0,1,4.55762-10.91894c4.24024-3.92188,9.96485-4.76953,14.31055-4.76953a29.83254,29.83254,0,0,1,15.68847,4.02832Z"/><path class="cls-16" d="M67.97882,670.97211v34.98047H52.71417V670.97211H47.41339V658.67524h5.30078V643.41059H67.97882v15.26465h9.43359v12.29687Z"/><path class="cls-16" d="M120.7669,658.67524h15.26367v47.27734H120.7669V700.228c-4.13476,6.36036-10.07031,7.31446-13.99316,7.31446-6.78418,0-12.50781-1.69629-17.70215-7.208a25.0138,25.0138,0,0,1-6.88965-17.70215c0-7.95019,2.96777-14.73437,7.31348-19.08105a22.79634,22.79634,0,0,1,16.43066-6.46582c4.02832,0,10.49414.9541,14.84082,6.88964Zm-19.39844,14.94629a11.81071,11.81071,0,0,0-3.498,8.58691,12.19164,12.19164,0,0,0,3.17968,8.4795,12.53587,12.53587,0,0,0,9.00977,3.71,11.30312,11.30312,0,0,0,7.9502-3.28614,12.54236,12.54236,0,0,0,.21289-17.5957,12.77311,12.77311,0,0,0-8.48047-3.28613A12.03383,12.03383,0,0,0,101.36846,673.62153Z"/><path class="cls-16" d="M148.431,658.67524h15.26368v7.41992a16.96629,16.96629,0,0,1,5.93652-6.57226,14.62875,14.62875,0,0,1,8.16211-2.01368,15.31956,15.31956,0,0,1,4.98242.74219l-.84863,14.31055a14.39857,14.39857,0,0,0-6.88965-1.69629,9.96732,9.96732,0,0,0-7.63184,3.17969c-3.39257,3.60449-3.71093,8.69238-3.71093,12.7207v19.18652H148.431Z"/><path class="cls-16" d="M695.596,688.3559a9.64649,9.64649,0,1,1-9.64648,9.64649A9.54757,9.54757,0,0,1,695.596,688.3559Z"/><path class="cls-16" d="M725.4876,629.63032a8.9043,8.9043,0,1,1-8.90332,8.90429A8.82273,8.82273,0,0,1,725.4876,629.63032Zm7.63282,29.04492v47.27734H717.85577V658.67524Z"/><path class="cls-16" d="M792.69171,699.91059c-4.24024,4.24024-11.44922,7.63184-20.6709,7.63184-9.22266,0-16.43067-3.3916-20.6709-7.63184a25.35185,25.35185,0,0,1,0-35.19336c4.24023-4.24023,11.44824-7.63183,20.6709-7.63183,9.22168,0,16.43066,3.3916,20.6709,7.63183a25.35185,25.35185,0,0,1,0,35.19336Zm-29.25684-26.501a13.082,13.082,0,0,0,0,17.8086,11.75237,11.75237,0,0,0,8.69141,3.3916,11.58793,11.58793,0,0,0,8.48047-3.3916,13.082,13.082,0,0,0,0-17.8086,12.56359,12.56359,0,0,0-17.17188,0Z"/><path class="cls-15" d="M22.83721,733.601H9.03643v12.10059h13.501v2H9.03643v15.251H22.83721v2H6.83624V731.601h16.001Z"/><path class="cls-15" d="M43.03546,747.1518h10.001v2.29981h-10.001Z"/><path class="cls-15" d="M75.03546,731.601h7.30078c5.80078,0,9.20019,3.34961,9.20019,8.34961a8.12371,8.12371,0,0,1-3.90039,7.30078c4.35059.7002,6.90137,4.05078,6.90137,8.35059,0,5.85058-4.30078,9.35058-10.35156,9.35058H75.03546Zm2.20019,15.10059h5.30078a6.41559,6.41559,0,0,0,4.54981-1.40039,6.28444,6.28444,0,0,0,2.20019-5.10059,6.46228,6.46228,0,0,0-2.25-5.20019c-1.65039-1.29981-3.7998-1.39942-5.55078-1.39942h-4.25Zm0,16.251h5.60059c2.25,0,5,0,7.25-2a6.47891,6.47891,0,0,0,2.15039-5.10058c0-3-1.04981-5.04981-3.54981-6.2002-.90039-.40039-2.55078-.95019-6.251-.95019h-5.2002Z"/><path class="cls-15" d="M118.93487,731.601v20.85059c0,3.15039.15039,5.20019,1.40039,7.20019,1.9502,3.15039,5.60059,3.85059,7.75,3.85059,2.15039,0,5.80078-.7002,7.751-3.85059,1.25-2,1.40039-4.0498,1.40039-7.20019V731.601h2.19922v20.85059c0,3.65039-.19922,6.05078-1.89942,8.55078-2.5,3.65039-6.45019,4.5-9.45117,4.5-3,0-6.95019-.84961-9.45019-4.5-1.7002-2.5-1.90039-4.90039-1.90039-8.55078V731.601Z"/><path class="cls-15" d="M178.63507,737.25044a7.12834,7.12834,0,0,0-6.55079-4.09961,5.92794,5.92794,0,0,0-6.20019,6.20019c0,3.60059,2.5,4.80078,5.85059,6.4502a47.13821,47.13821,0,0,1,6.65039,3.5,7.33253,7.33253,0,0,1,3.5498,6.45117c0,5.59961-4.70019,9.75-10.40039,9.75a9.52565,9.52565,0,0,1-7.75-3.5,10.93507,10.93507,0,0,1-2.15039-3.65039l1.90039-.89942a11.54468,11.54468,0,0,0,1.7998,3.2002,8.02053,8.02053,0,0,0,6.25,2.84961,7.75454,7.75454,0,0,0,8.05079-7.7002c0-1.7998-.7002-3.70019-3.25-5.25-.9502-.55078-2.90039-1.55078-5.65039-2.90039-3.29981-1.60058-4.9502-2.5-6.10059-4.40039a7.1699,7.1699,0,0,1-1.04981-3.80078,8.1013,8.1013,0,0,1,8.55079-8.2998,8.94011,8.94011,0,0,1,8.10058,4.75Z"/><path class="cls-15" d="M206.33428,731.601v33.35156h-2.20019V731.601Z"/><path class="cls-15" d="M230.33428,764.95258V731.25044l28.002,29.30175V731.601h2.20019v34.20117l-28.00195-29.30175v28.45214Z"/><path class="cls-15" d="M300.53448,733.601H286.7337v12.10059h13.501v2h-13.501v15.251h13.80078v2h-16.001V731.601h16.001Z"/><path class="cls-15" d="M337.93389,737.25044a7.12833,7.12833,0,0,0-6.55078-4.09961,5.92794,5.92794,0,0,0-6.20019,6.20019c0,3.60059,2.5,4.80078,5.85058,6.4502a47.13706,47.13706,0,0,1,6.65039,3.5,7.33252,7.33252,0,0,1,3.54981,6.45117c0,5.59961-4.7002,9.75-10.40039,9.75a9.52564,9.52564,0,0,1-7.75-3.5,10.93507,10.93507,0,0,1-2.15039-3.65039l1.90039-.89942a11.54442,11.54442,0,0,0,1.7998,3.2002,8.02053,8.02053,0,0,0,6.25,2.84961,7.75453,7.75453,0,0,0,8.05078-7.7002c0-1.7998-.70019-3.70019-3.25-5.25-.95019-.55078-2.90039-1.55078-5.65039-2.90039-3.2998-1.60058-4.95019-2.5-6.10058-4.40039a7.1699,7.1699,0,0,1-1.04981-3.80078,8.1013,8.1013,0,0,1,8.55078-8.2998,8.94014,8.94014,0,0,1,8.10059,4.75Z"/><path class="cls-15" d="M377.08428,737.25044a7.12833,7.12833,0,0,0-6.55078-4.09961,5.92794,5.92794,0,0,0-6.20019,6.20019c0,3.60059,2.5,4.80078,5.85058,6.4502a47.13706,47.13706,0,0,1,6.65039,3.5,7.33252,7.33252,0,0,1,3.54981,6.45117c0,5.59961-4.7002,9.75-10.40039,9.75a9.52564,9.52564,0,0,1-7.75-3.5,10.93507,10.93507,0,0,1-2.15039-3.65039l1.90039-.89942a11.54442,11.54442,0,0,0,1.7998,3.2002,8.02053,8.02053,0,0,0,6.25,2.84961,7.75453,7.75453,0,0,0,8.05078-7.7002c0-1.7998-.70019-3.70019-3.25-5.25-.95019-.55078-2.90039-1.55078-5.65039-2.90039-3.2998-1.60058-4.95019-2.5-6.10058-4.40039a7.1699,7.1699,0,0,1-1.04981-3.80078,8.1013,8.1013,0,0,1,8.55078-8.2998,8.94013,8.94013,0,0,1,8.10059,4.75Z"/><path class="cls-15" d="M445.23272,733.601H431.43194v12.10059h13.501v2h-13.501v15.251h13.80078v2h-16.001V731.601h16.001Z"/><path class="cls-15" d="M480.93292,733.601H469.63214v12.10059h11.001v2h-11.001v17.251h-2.2002V731.601h13.501Z"/><path class="cls-15" d="M516.23175,733.601H504.931v12.10059h11.001v2H504.931v17.251h-2.20019V731.601h13.501Z"/><path class="cls-15" d="M540.23077,731.601v33.35156h-2.2002V731.601Z"/><path class="cls-15" d="M590.93292,738.40083a14.76628,14.76628,0,0,0-11.251-5.25,15.17713,15.17713,0,0,0,.04981,30.35156,15.51174,15.51174,0,0,0,11.20117-5.04981V761.352a16.74639,16.74639,0,0,1-11.10059,4.15039,17.17674,17.17674,0,1,1-.10058-34.35156,16.24156,16.24156,0,0,1,11.20117,4.34961Z"/><path class="cls-15" d="M615.33038,731.601v33.35156h-2.2002V731.601Z"/><path class="cls-15" d="M655.33135,733.601H641.53057v12.10059h13.501v2h-13.501v15.251h13.80078v2h-16.001V731.601h16.001Z"/><path class="cls-15" d="M677.5296,764.95258V731.25044l28.002,29.30175V731.601h2.2002v34.20117l-28.002-29.30175v28.45214Z"/><path class="cls-15" d="M758.43194,738.40083a14.76627,14.76627,0,0,0-11.251-5.25,15.17713,15.17713,0,0,0,.04981,30.35156,15.51174,15.51174,0,0,0,11.20117-5.04981V761.352a16.74639,16.74639,0,0,1-11.10059,4.15039,17.17674,17.17674,0,1,1-.10058-34.35156,16.24156,16.24156,0,0,1,11.20117,4.34961Z"/><path class="cls-15" d="M786.72979,750.70161,775.7796,731.601h2.5l9.60058,16.85059L797.681,731.601h2.5L788.93,750.70161v14.251h-2.2002Z"/></svg>