<?xml version="1.0" encoding="utf-8"?>
<!-- Generator: Adobe Illustrator 22.0.1, SVG Export Plug-In . SVG Version: 6.00 Build 0)  -->
<svg version="1.1" id="Layer_1" xmlns="http://www.w3.org/2000/svg" xmlns:xlink="http://www.w3.org/1999/xlink" x="0px" y="0px"
	 width="240.9448853px" height="283.4645691px" viewBox="0 0 240.9448853 283.4645691"
	 enable-background="new 0 0 240.9448853 283.4645691" xml:space="preserve">
<linearGradient id="SVGID_1_" gradientUnits="userSpaceOnUse" x1="-13891.8339844" y1="14154.0390625" x2="25412.9707031" y2="-25150.765625">
	<stop  offset="0" style="stop-color:#F38229"/>
	<stop  offset="1" style="stop-color:#F79535"/>
</linearGradient>
<path fill="url(#SVGID_1_)" d="M202.7160797,139.4555817l16.7226563-29.7964478l21.5061035-38.319519h-76.6408691h-2.9997559
	l-5.7944336-10.1237793l-2.4284668-4.2431641l-0.0883789-0.1542358l-2.9204102-5.102478l-6.1489258-10.7431641
	L126.917984,11.2613688l-6.4455566-11.2614136l-13.7480469,24.0200195l-0.7434082,1.2990723l-4.8886719,8.5413189
	l-21.451416,37.479248H0.0000148l39.5068359,70.3926392L24.954361,167.6614532l-3.6166992,6.4442749l-4.6003418,8.1968994
	l-3.2109385,5.7211304l-12.2067871,21.749939l-1.3195801,2.3511963h42.5944824h31.5185547h5.527832l2.3405762,4.0898438
	l8.1865234,14.3029175l6.9421387,12.1289673l0.3137207,0.5484619l0.6408691,1.119751l7.0783691,12.3667145l15.3293457,26.78302
	l13.6860352-23.9116821l27.145752-47.4279938h7.5861816h13.4035645h58.6508789l-39.5065918-70.3926392L202.7160797,139.4555817z
	 M170.7631989,180.662674l-16.7180176-1.4959106l-7.939209-0.7103882c-1.3674316-0.0202637-2.7424316,0.5100098-3.840332,0.769104
	c-1.3833008,1.0808716-1.9421387,1.8986816-2.2316895,2.9957275l-19.1889648,40.4665527l-4.0498047-8.524231l-3.7749023-7.9452515
	l-11.0141602-23.1835327c-0.800293-1.3885498-1.6044922-2.5018311-2.963623-3.0726318
	c-1.3630371-0.2955322-2.1755371-0.8582764-3.5427246-0.878479l-44.907959,3.7404175l12.045166-17.2437744l13.6540527-19.546936
	c0.5629883-1.0929565,0.8564453-2.465332,0.8764648-3.8417358c0.0202637-1.3764648-0.2331543-2.756897-1.3068848-4.1495361
	l-2.1450195-3.0812988l-12.4633789-17.9015503L50.6806793,101.874649l17.2080078,1.3254395l27.048584,2.0834351
	c1.3671875,0.0202026,2.7424316-0.5101318,3.8442383-1.0444946c1.3791504-0.805603,2.2114258-1.6192627,2.7783203-2.9876099
	l18.6425781-40.4746094l9.1337891,19.3596191l9.9663086,21.12323c0.5268555,1.3845215,1.3310547,2.4978027,2.6940918,2.793335
	c1.3591309,0.5708008,2.4489746,0.8623047,3.8161621,0.8825684l6.3149414-0.5375366l15.5947266-1.3273315l22.1779785-1.8876953
	l-19.2751465,28.833374l-1.5395508,2.3029175l-1.0429688,1.5598755l-0.5170898,0.7739258l-2.2307129,3.336731
	c-1.1137695,1.3602295-1.4074707,2.732605-1.4274902,4.1090088c-0.0073242,0.5020142,0.0244141,0.9306641,0.1176758,1.3410645
	c0.1625977,0.7148438,0.5151367,1.3731079,1.1972656,2.2578735l25.1721191,36.7179565L170.7631989,180.662674z"/>
<g>
	
		<linearGradient id="SVGID_2_" gradientUnits="userSpaceOnUse" x1="-3463.2519531" y1="3825.9047852" x2="1105.7313232" y2="-743.0784912">
		<stop  offset="0" style="stop-color:#EB5725"/>
		<stop  offset="1" style="stop-color:#F27723"/>
	</linearGradient>
	<path fill="url(#SVGID_2_)" d="M146.1058807,178.4563599c-1.3672028-0.0202637-2.7423401,0.5100555-3.8401489,0.769165
		c-1.3833466,1.0808716-1.9422302,1.8986359-2.23172,2.9957123l-19.1890182,40.466507l-4.0497971-8.5241852l-10.6273041,15.9270477
		l-2.1642685,3.2436066l-4.5261307,6.7832489l-2.053566,3.077652l0.6409225,1.1197205l7.0781784,12.3667145l15.3294144,26.78302
		l13.6860199-23.9116821l27.1457825-47.427948h7.5859985l-14.8451385-32.9581604L146.1058807,178.4563599z"/>
	
		<linearGradient id="SVGID_3_" gradientUnits="userSpaceOnUse" x1="-2958.1166992" y1="888.8869019" x2="-2956.2751465" y2="887.0453491" gradientTransform="matrix(-70.9037781 17.3682003 16.8923588 68.9612045 -224573.859375 -9800.7294922)">
		<stop  offset="0" style="stop-color:#F4AB4C"/>
		<stop  offset="1" style="stop-color:#FAA93C"/>
	</linearGradient>
	<path fill="url(#SVGID_3_)" d="M94.9371567,105.2835083c1.3672104,0.0202332,2.7424774-0.5100861,3.8442535-1.0444336
		c1.3792419-0.8056259,2.2116165-1.6193085,2.7785721-2.9876251l18.6422958-40.4746284l9.1339035,19.3596001l20.0225677-19.7358246
		l-43.3778381-35.0815353l-4.8885727,8.5412922l-33.2035675,69.3397522L94.9371567,105.2835083z"/>
	
		<linearGradient id="SVGID_4_" gradientUnits="userSpaceOnUse" x1="-34138.2617188" y1="34356.4257813" x2="34991.40625" y2="-34773.2460938">
		<stop  offset="0" style="stop-color:#F9A83E"/>
		<stop  offset="1" style="stop-color:#F79837"/>
	</linearGradient>
	<path fill="url(#SVGID_4_)" d="M77.1675568,142.1915894c0.0202179-1.3764343-0.2331772-2.756897-1.3068008-4.1494904
		l-2.145195-3.0812988l-39.8399658,39.2695618l28.7613983-8.6500702l13.6540298-19.5469055
		C76.8540039,144.9403687,77.1474609,143.5679932,77.1675568,142.1915894z"/>
	
		<linearGradient id="SVGID_5_" gradientUnits="userSpaceOnUse" x1="-3097.5549316" y1="899.480957" x2="-3095.4584961" y2="897.3845215" gradientTransform="matrix(-17.4831238 4.2825699 7.3755369 30.1098232 -60633.3476563 -13754.3662109)">
		<stop  offset="0" style="stop-color:#F5B445"/>
		<stop  offset="1" style="stop-color:#F7B749"/>
	</linearGradient>
	<polygon fill="url(#SVGID_5_)" points="153.0812988,56.9727173 152.992981,56.8184586 149.3587494,60.4005966 	"/>
	
		<linearGradient id="SVGID_6_" gradientUnits="userSpaceOnUse" x1="-34142.390625" y1="34352.296875" x2="-5276.8735352" y2="5486.7797852">
		<stop  offset="0" style="stop-color:#F9A83E"/>
		<stop  offset="1" style="stop-color:#F79837"/>
	</linearGradient>
	<polygon fill="url(#SVGID_6_)" points="153.0812988,56.9727173 152.992981,56.8184586 149.3587494,60.4005966 	"/>
	
		<linearGradient id="SVGID_7_" gradientUnits="userSpaceOnUse" x1="-2956.6621094" y1="896.4486694" x2="-2954.5493164" y2="894.3359985" gradientTransform="matrix(-72.846344 17.8440399 9.9926624 40.7939529 -224146.53125 16416.1933594)">
		<stop  offset="0" style="stop-color:#F38229"/>
		<stop  offset="1" style="stop-color:#F79535"/>
	</linearGradient>
	<path fill="url(#SVGID_7_)" d="M113.0203094,206.2182617L102.0059891,183.03479
		c-0.8001251-1.3885803-1.6043549-2.5018616-2.963501-3.0726624c-1.3631058-0.2955322-2.1755219-0.8582611-3.5426025-0.8784943
		l-44.9080887,3.7404327l12.0451965-17.2437744l-28.7613983,8.6500702L23.3388958,185.733963L74.11306,212.124939h5.5277023
		l2.3407516,4.0898132l21.737999,11.2987671L113.0203094,206.2182617z"/>
	
		<linearGradient id="SVGID_8_" gradientUnits="userSpaceOnUse" x1="-1531.7285156" y1="104.0453568" x2="101.0927353" y2="104.0453568">
		<stop  offset="0" style="stop-color:#F4AB4C"/>
		<stop  offset="1" style="stop-color:#FAA93C"/>
	</linearGradient>
	<polygon fill="url(#SVGID_8_)" points="50.6806145,101.8746643 67.8887711,103.2001114 101.0923386,33.8603554 
		79.6407623,71.3396301 0,71.3396301 39.5068321,141.7322998 24.9545116,167.6614685 21.337677,174.1057739 33.8755951,174.2303619 
		73.7155609,134.9608002 61.2522507,117.059227 	"/>
	
		<linearGradient id="SVGID_9_" gradientUnits="userSpaceOnUse" x1="-2956.4472656" y1="896.6624146" x2="-2954.3359375" y2="894.5510254" gradientTransform="matrix(-72.846344 17.8440399 9.9926624 40.7939529 -224146.53125 16416.1933594)">
		<stop  offset="0" style="stop-color:#F38229"/>
		<stop  offset="1" style="stop-color:#F79535"/>
	</linearGradient>
	<polygon fill="url(#SVGID_9_)" points="42.594471,212.124939 74.11306,212.124939 23.3388958,185.733963 	"/>
	
		<linearGradient id="SVGID_10_" gradientUnits="userSpaceOnUse" x1="-2956.6708984" y1="894.1471558" x2="-2956.668457" y2="894.1445923" gradientTransform="matrix(-72.846344 17.8440399 9.9926624 40.7939529 -224146.53125 16416.1933594)">
		<stop  offset="0" style="stop-color:#F38229"/>
		<stop  offset="1" style="stop-color:#F79535"/>
	</linearGradient>
	<polygon fill="url(#SVGID_10_)" points="170.9472656,133.0056915 170.9472656,133.005661 170.9472656,133.0056915 	"/>
	
		<linearGradient id="SVGID_11_" gradientUnits="userSpaceOnUse" x1="-2956.6708984" y1="893.7662964" x2="-2956.668457" y2="893.7640381" gradientTransform="matrix(-72.846344 17.8440399 10.9443455 44.6790924 -224993.3125 12959.3232422)">
		<stop  offset="0" style="stop-color:#F9A83E"/>
		<stop  offset="1" style="stop-color:#F79837"/>
	</linearGradient>
	<polygon fill="url(#SVGID_11_)" points="170.9472656,133.0056915 170.9472656,133.005661 170.9472656,133.0056915 	"/>
	
		<linearGradient id="SVGID_12_" gradientUnits="userSpaceOnUse" x1="-2943.9108887" y1="883.7961426" x2="-2943.9101563" y2="883.7955322" gradientTransform="matrix(-99.0710297 24.2678947 32.8330345 134.0372772 -320503 -46886.0703125)">
		<stop  offset="0" style="stop-color:#EB5825"/>
		<stop  offset="1" style="stop-color:#F38023"/>
	</linearGradient>
	<polygon fill="url(#SVGID_12_)" points="170.9472656,133.0056915 170.9472656,133.005661 170.9472656,133.0056915 	"/>
	
		<linearGradient id="SVGID_13_" gradientUnits="userSpaceOnUse" x1="170.8828278" y1="133.0701141" x2="171.011673" y2="132.9412689">
		<stop  offset="0" style="stop-color:#F58B33"/>
		<stop  offset="1" style="stop-color:#F7973A"/>
	</linearGradient>
	<polygon fill="url(#SVGID_13_)" points="170.9472656,133.0056915 170.9472656,133.005661 170.9472656,133.0056915 	"/>
	
		<linearGradient id="SVGID_14_" gradientUnits="userSpaceOnUse" x1="-2956.6696777" y1="894.145874" x2="-2956.6696777" y2="894.145874" gradientTransform="matrix(-72.846344 17.8440399 9.9926624 40.7939529 -224146.53125 16416.1933594)">
		<stop  offset="0" style="stop-color:#F38229"/>
		<stop  offset="1" style="stop-color:#F79535"/>
	</linearGradient>
	<polygon fill="url(#SVGID_14_)" points="170.9472656,133.0056915 170.9472656,133.0056915 170.9472656,133.0056915 	"/>
	
		<linearGradient id="SVGID_15_" gradientUnits="userSpaceOnUse" x1="-2956.6696777" y1="894.145874" x2="-2956.6696777" y2="894.145874" gradientTransform="matrix(-72.846344 17.8440399 9.9926624 40.7939529 -224146.53125 16416.1933594)">
		<stop  offset="0" style="stop-color:#F38229"/>
		<stop  offset="1" style="stop-color:#F79535"/>
	</linearGradient>
	<polygon fill="url(#SVGID_15_)" points="170.9472656,133.0056915 170.9472656,133.0056915 170.9472656,133.0056915 	"/>
	
		<linearGradient id="SVGID_16_" gradientUnits="userSpaceOnUse" x1="-2943.9106445" y1="883.7958374" x2="-2943.9106445" y2="883.7958374" gradientTransform="matrix(-99.0710297 24.2678947 32.8330345 134.0372772 -320503 -46886.0703125)">
		<stop  offset="0" style="stop-color:#EB5825"/>
		<stop  offset="1" style="stop-color:#F38023"/>
	</linearGradient>
	<polygon fill="url(#SVGID_16_)" points="170.9472656,133.0056915 170.9472656,133.0056915 170.9472656,133.0056915 	"/>
	
		<linearGradient id="SVGID_17_" gradientUnits="userSpaceOnUse" x1="170.9472656" y1="133.0056915" x2="170.9472656" y2="133.0056915">
		<stop  offset="0" style="stop-color:#F58B33"/>
		<stop  offset="1" style="stop-color:#F7973A"/>
	</linearGradient>
	<polygon fill="url(#SVGID_17_)" points="170.9472656,133.0056915 170.9472656,133.0056915 170.9472656,133.0056915 	"/>
	
		<linearGradient id="SVGID_18_" gradientUnits="userSpaceOnUse" x1="-7670.8916016" y1="7911.7324219" x2="8049.4121094" y2="-7808.5717773">
		<stop  offset="0" style="stop-color:#F58A26"/>
		<stop  offset="1" style="stop-color:#F6922B"/>
	</linearGradient>
	<polygon fill="url(#SVGID_18_)" points="23.3388958,185.733963 33.8755951,174.2303619 21.337677,174.1057739 
		16.737318,182.3026581 13.5264339,188.0237579 1.319599,209.7737274 0,212.124939 42.594471,212.124939 74.11306,212.124939 	"/>
	
		<linearGradient id="SVGID_19_" gradientUnits="userSpaceOnUse" x1="108.1001892" y1="57.0417557" x2="236.9306793" y2="-71.7887421">
		<stop  offset="0" style="stop-color:#F5B445"/>
		<stop  offset="1" style="stop-color:#F7B749"/>
	</linearGradient>
	<polygon fill="url(#SVGID_19_)" points="150.0724945,51.7159653 143.9235687,40.9728355 126.9180145,11.2613707 120.4724426,0 
		106.724472,24.0199661 105.9809113,25.3190632 149.3587494,60.4005966 152.992981,56.8184586 	"/>
	
		<linearGradient id="SVGID_20_" gradientUnits="userSpaceOnUse" x1="-34197.7109375" y1="34430.7109375" x2="35066.7421875" y2="-34833.7460938">
		<stop  offset="0" style="stop-color:#F9A83E"/>
		<stop  offset="1" style="stop-color:#F79837"/>
	</linearGradient>
	<path fill="url(#SVGID_20_)" d="M153.0812988,56.9727173l-3.7225494,3.4278793l-20.0225677,19.7358246l9.9663086,21.1232758
		c0.5267639,1.3845215,1.3309784,2.4977951,2.6940918,2.7933273c1.3591461,0.5708084,2.4488983,0.8622818,3.8161011,0.8825455
		l6.315155-0.5375366l3.3820038-43.1822128L153.0812988,56.9727173z"/>
	
		<linearGradient id="SVGID_21_" gradientUnits="userSpaceOnUse" x1="-3657.8015137" y1="3930.7133789" x2="3964.626709" y2="-3691.7150879">
		<stop  offset="0" style="stop-color:#F58B33"/>
		<stop  offset="1" style="stop-color:#F7973A"/>
	</linearGradient>
	<polygon fill="url(#SVGID_21_)" points="164.3040924,71.3396301 161.304245,71.3396301 155.5098419,61.2158203 
		152.1278381,104.3980331 167.7224274,103.0706863 189.9004211,101.1830063 170.6252594,130.0163727 169.0856628,132.3192902 
		168.0428925,133.8791656 167.5256042,134.6530914 170.9472656,133.0056915 170.9472656,133.005661 219.4386597,109.6591339 
		240.9448853,71.3396301 	"/>
	
		<linearGradient id="SVGID_22_" gradientUnits="userSpaceOnUse" x1="-11199.6445313" y1="11577.2685547" x2="1354.4080811" y2="-976.7838745">
		<stop  offset="0" style="stop-color:#EB5825"/>
		<stop  offset="1" style="stop-color:#F38023"/>
	</linearGradient>
	<path fill="url(#SVGID_22_)" d="M201.4381714,141.7322998l1.2777557-2.2767334l16.7227325-29.7964325l-48.491394,23.3465271
		v0.0000305l-3.4216614,1.6473999l-2.2306976,3.3367615c-1.1138,1.360199-1.4073944,2.7325745-1.427475,4.1089783
		c-0.007309,0.5019989,0.0244446,0.9306641,0.1177368,1.3410645c0.1623993,0.7148895,0.5149841,1.3731537,1.197113,2.2578888
		l25.1722107,36.7179718l-19.5912628-1.7530518l-16.7181244-1.4959259l14.8451385,32.9581604h13.4037018h58.6509399
		L201.4381714,141.7322998z"/>
	
		<linearGradient id="SVGID_23_" gradientUnits="userSpaceOnUse" x1="-1829.8632813" y1="2149.2709961" x2="3583.3347168" y2="-3263.927002">
		<stop  offset="0" style="stop-color:#F38229"/>
		<stop  offset="1" style="stop-color:#F79535"/>
	</linearGradient>
	<polygon fill="url(#SVGID_23_)" points="113.0203094,206.2182617 103.7195129,227.5135193 81.981514,216.2147522 
		90.1679916,230.5176544 97.1101227,242.646637 97.4239273,243.1951141 99.4774933,240.1174622 104.003624,233.3342133 
		106.1678925,230.0906067 116.7951965,214.163559 	"/>
</g>
</svg>
